<svg xmlns="http://www.w3.org/2000/svg" viewBox="0 0 256 256" fill="none" role="img" aria-label="PassVault">
  <defs>
    <linearGradient id="bg" x1="36" y1="28" x2="220" y2="230" gradientUnits="userSpaceOnUse">
      <stop offset="0" stop-color="#2a1711"/>
      <stop offset="0.5" stop-color="#4f2a1d"/>
      <stop offset="1" stop-color="#1d120d"/>
    </linearGradient>
    <linearGradient id="ring" x1="64" y1="56" x2="196" y2="200" gradientUnits="userSpaceOnUse">
      <stop offset="0" stop-color="#f6b26b"/>
      <stop offset="1" stop-color="#e46f2b"/>
    </linearGradient>
    <linearGradient id="key" x1="76" y1="96" x2="184" y2="174" gradientUnits="userSpaceOnUse">
      <stop offset="0" stop-color="#ffe2bd"/>
      <stop offset="1" stop-color="#f4b36f"/>
    </linearGradient>
    <filter id="shadow" x="36" y="36" width="184" height="184" filterUnits="userSpaceOnUse">
      <feDropShadow dx="0" dy="10" stdDeviation="12" flood-color="#000000" flood-opacity="0.28"/>
    </filter>
  </defs>

  <rect x="22" y="22" width="212" height="212" rx="54" fill="url(#bg)"/>
  <rect x="22" y="22" width="212" height="212" rx="54" stroke="url(#ring)" stroke-width="10"/>

  <g filter="url(#shadow)">
    <path d="M95 123.5C95 104.446 110.446 89 129.5 89C148.554 89 164 104.446 164 123.5C164 139.848 152.724 153.505 137.5 157.045V168H152V182H137.5V191H123.5V182H112V168H123.5V157.045C108.276 153.505 95 139.848 95 123.5Z" fill="url(#key)"/>
    <circle cx="129.5" cy="123.5" r="17.5" fill="#2a1711" opacity="0.35"/>
    <circle cx="129.5" cy="123.5" r="9.5" fill="#2a1711"/>
  </g>

  <path d="M67 67L92 67" stroke="#f6b26b" stroke-width="8" stroke-linecap="round" opacity="0.65"/>
  <path d="M164 67L189 67" stroke="#f6b26b" stroke-width="8" stroke-linecap="round" opacity="0.35"/>
</svg>
